# xmcd
#
# Track frame offsets:
#	150
#	17517
#	33082
#	45110
#	58977
#	79745
#	94872
#	105382
#	121465
#	137755
#	155920
#	172447
#	189797
#
# Disc length: 2578 seconds
#
# Revision: 0
# Processed by: cddbd v1.5PL3 Copyright (c) Steve Scherf et al.
# Submitted via: dBpowerAMP V4.0
#
DISCID=a40a100d
DTITLE=Tore Andersen - Tore Andersen
DYEAR=2000
DGENRE=Country
TTITLE0=Hard Water
TTITLE1=A Little Love
TTITLE2=Between Two Rivers
TTITLE3=If I Had The Heart
TTITLE4=The Willowtree
TTITLE5=By The Light Of The Moon
TTITLE6=Blue, Blue Day
TTITLE7=Two Lane Highway
TTITLE8=Bad News
TTITLE9=Silverado
TTITLE10=Nothing Left To Lose
TTITLE11=Harbour For My Heart
TTITLE12=Bonus 
EXTD=
EXTT0=
EXTT1=
EXTT2=
EXTT3=
EXTT4=
EXTT5=
EXTT6=
EXTT7=
EXTT8=
EXTT9=
EXTT10=
EXTT11=
EXTT12=
PLAYORDER=
